<?xml version="1.0" standalone="no"?>
<!DOCTYPE svg PUBLIC "-//W3C//DTD SVG 20010904//EN"
 "http://www.w3.org/TR/2001/REC-SVG-20010904/DTD/svg10.dtd">
<svg version="1.0" xmlns="http://www.w3.org/2000/svg"
 width="700.000000pt" height="700.000000pt" viewBox="0 0 700.000000 700.000000"
 preserveAspectRatio="xMidYMid meet">
<metadata>
Created by potrace 1.14, written by Peter Selinger 2001-2017
</metadata>
<g transform="translate(0.000000,700.000000) scale(0.100000,-0.100000)"
fill="#000000" stroke="none">
<path d="M3190 6900 c-670 -63 -1299 -319 -1835 -746 -141 -113 -396 -368
-509 -509 -402 -505 -641 -1064 -733 -1715 -25 -177 -25 -681 0 -860 91 -649
331 -1210 733 -1715 113 -141 368 -396 509 -509 550 -438 1171 -686 1870 -747
165 -14 551 -6 710 16 640 86 1207 330 1717 737 135 108 392 365 502 503 605
760 860 1698 720 2655 -99 684 -427 1346 -917 1856 -279 290 -587 515 -952
694 -346 170 -678 271 -1065 325 -136 19 -606 28 -750 15z m644 -109 c517
-112 936 -440 1161 -906 63 -130 116 -291 141 -430 29 -151 26 -471 -5 -615
-109 -512 -434 -938 -889 -1163 -238 -118 -417 -161 -742 -177 -261 -13 -408
-39 -581 -105 -489 -187 -871 -597 -1013 -1088 -51 -176 -60 -249 -61 -467 0
-174 3 -222 23 -317 119 -590 533 -1065 1092 -1257 107 -36 277 -75 334 -77
17 0 25 -3 18 -6 -20 -8 -305 26 -443 53 -497 96 -959 302 -1361 604 -751 565
-1226 1407 -1318 2339 -13 133 -13 509 0 642 148 1496 1282 2711 2760 2958
204 34 282 39 540 37 207 -3 260 -6 344 -25z m-142 -4564 c219 -108 306 -368
197 -586 -83 -165 -276 -264 -455 -234 -239 41 -405 267 -365 497 29 167 135
291 296 349 38 13 74 17 151 15 93 -3 106 -6 176 -41z"/>
<path d="M3391 5584 c-166 -45 -293 -183 -322 -353 -33 -184 73 -381 248 -464
64 -30 74 -32 183 -32 109 0 119 2 182 32 178 84 282 279 248 465 -45 255
-295 418 -539 352z"/>
</g>
</svg>
